<svg width="37" height="23" viewBox="0 0 37 23" fill="none" xmlns="http://www.w3.org/2000/svg">
<g filter="url(#filter0_d_24_104)">
<path d="M31.8947 13.5466C31.8607 13.478 31.8291 13.4211 31.7997 13.3755C31.3131 12.554 30.3833 11.5456 29.0109 10.3502L28.9819 10.3228L28.9674 10.3094L28.9527 10.2956H28.938C28.3151 9.73891 27.9206 9.36461 27.7554 9.17298C27.4532 8.80793 27.3855 8.43842 27.5507 8.06402C27.6674 7.78115 28.1057 7.18377 28.8648 6.27105C29.264 5.78734 29.5802 5.39966 29.8137 5.10759C31.4978 3.00858 32.228 1.66729 32.004 1.08319L31.917 0.94669C31.8585 0.864514 31.7077 0.789337 31.4646 0.720777C31.221 0.65236 30.9096 0.641046 30.5299 0.686641L26.3249 0.713873C26.2568 0.691243 26.1595 0.693352 26.0328 0.720777C25.9062 0.748201 25.8429 0.761961 25.8429 0.761961L25.7697 0.796241L25.7116 0.837425C25.6629 0.864657 25.6094 0.912554 25.5509 0.981019C25.4928 1.04924 25.4441 1.12931 25.4053 1.22055C24.9475 2.32475 24.4269 3.35139 23.8428 4.30039C23.4826 4.86628 23.1518 5.3567 22.8497 5.77195C22.548 6.18705 22.2949 6.49289 22.0907 6.68893C21.8861 6.88517 21.7015 7.04238 21.5357 7.16114C21.3702 7.27994 21.2438 7.33014 21.1563 7.31178C21.0686 7.29341 20.986 7.27519 20.9078 7.25698C20.7716 7.1748 20.6621 7.06304 20.5795 6.92161C20.4965 6.78017 20.4407 6.60215 20.4115 6.3877C20.3824 6.1731 20.3653 5.98851 20.3603 5.83332C20.3558 5.67831 20.3579 5.45907 20.3678 5.17619C20.3779 4.89318 20.3824 4.70169 20.3824 4.60129C20.3824 4.25446 20.3896 3.87805 20.4041 3.47196C20.4188 3.06588 20.4308 2.74412 20.4407 2.50709C20.4507 2.26981 20.4553 2.01877 20.4553 1.75412C20.4553 1.48947 20.4381 1.28192 20.4041 1.13128C20.3706 0.980826 20.3191 0.834788 20.2512 0.693209C20.1829 0.551773 20.083 0.442364 19.9519 0.364694C19.8205 0.287121 19.6572 0.22556 19.4628 0.179821C18.9468 0.0703642 18.2898 0.011153 17.4915 0.00194768C15.681 -0.0162712 14.5177 0.0933293 14.0018 0.330606C13.7974 0.430857 13.6124 0.567834 13.4471 0.741105C13.2718 0.941943 13.2473 1.05154 13.3739 1.06957C13.958 1.1516 14.3715 1.34784 14.6149 1.65809L14.7026 1.82249C14.7708 1.9411 14.8389 2.1511 14.9071 2.45219C14.9752 2.75328 15.0191 3.08635 15.0384 3.45121C15.087 4.11749 15.087 4.68783 15.0384 5.16229C14.9897 5.63694 14.9437 6.00645 14.8998 6.2711C14.8558 6.53575 14.7902 6.75021 14.7026 6.91441C14.6149 7.07867 14.5565 7.17907 14.5273 7.2155C14.4981 7.25194 14.4738 7.27491 14.4544 7.28392C14.3279 7.32937 14.1963 7.35253 14.0601 7.35253C13.9237 7.35253 13.7583 7.28857 13.5637 7.16075C13.3691 7.03293 13.1672 6.85736 12.9578 6.63375C12.7485 6.41009 12.5125 6.09754 12.2495 5.69605C11.9868 5.29457 11.7143 4.82006 11.432 4.27254L11.1984 3.87546C11.0524 3.62002 10.8529 3.24806 10.5998 2.75994C10.3466 2.27163 10.1228 1.79928 9.92817 1.343C9.85038 1.15136 9.73353 1.00547 9.5778 0.905075L9.50472 0.86389C9.45614 0.827453 9.37815 0.788762 9.27117 0.747529C9.16403 0.706345 9.05223 0.676811 8.93532 0.65864L4.93465 0.685873C4.52583 0.685873 4.24844 0.7727 4.10238 0.946115L4.04393 1.02815C4.01473 1.07384 4 1.14681 4 1.24725C4 1.34765 4.0292 1.47087 4.08766 1.61676C4.67168 2.90359 5.3068 4.14462 5.993 5.34007C6.67921 6.53551 7.27551 7.49847 7.78154 8.22809C8.28768 8.95823 8.80359 9.64734 9.32926 10.2951C9.85494 10.943 10.2029 11.3583 10.3731 11.5407C10.5436 11.7235 10.6775 11.8601 10.7748 11.9513L11.1399 12.2798C11.3735 12.4989 11.7166 12.7612 12.1692 13.0669C12.6219 13.3727 13.1232 13.6738 13.6731 13.9706C14.2232 14.267 14.8631 14.5088 15.5933 14.6958C16.3233 14.883 17.0338 14.9582 17.725 14.9219H19.4042C19.7447 14.8944 20.0027 14.794 20.1781 14.6207L20.2362 14.5521C20.2752 14.4976 20.3118 14.413 20.3456 14.2991C20.3797 14.1851 20.3967 14.0594 20.3967 13.9227C20.3867 13.5304 20.4186 13.1768 20.4914 12.862C20.5642 12.5473 20.6471 12.31 20.7399 12.1502C20.8326 11.9906 20.9373 11.8558 21.0537 11.7466C21.1704 11.6372 21.2536 11.5709 21.3024 11.548C21.3508 11.5251 21.3895 11.5095 21.4187 11.5001C21.6524 11.4272 21.9273 11.4978 22.244 11.7125C22.5604 11.9269 22.8571 12.1917 23.1347 12.5064C23.4122 12.8214 23.7455 13.1748 24.1348 13.5672C24.5243 13.9596 24.8649 14.2514 25.1568 14.4433L25.4487 14.6076C25.6437 14.7172 25.8968 14.8176 26.2083 14.9088C26.5193 15 26.7918 15.0228 27.0258 14.9772L30.7635 14.9226C31.1332 14.9226 31.4208 14.8652 31.6249 14.7513C31.8293 14.6372 31.9508 14.5116 31.99 14.3749C32.029 14.2381 32.0311 14.0828 31.9974 13.9092C31.9628 13.7361 31.9287 13.6151 31.8947 13.5466Z" fill="#66C05D"/>
</g>
<defs>
<filter id="filter0_d_24_104" x="0" y="0" width="36.0434" height="23" filterUnits="userSpaceOnUse" color-interpolation-filters="sRGB">
<feFlood flood-opacity="0" result="BackgroundImageFix"/>
<feColorMatrix in="SourceAlpha" type="matrix" values="0 0 0 0 0 0 0 0 0 0 0 0 0 0 0 0 0 0 127 0" result="hardAlpha"/>
<feOffset dy="4"/>
<feGaussianBlur stdDeviation="2"/>
<feComposite in2="hardAlpha" operator="out"/>
<feColorMatrix type="matrix" values="0 0 0 0 0 0 0 0 0 0 0 0 0 0 0 0 0 0 0.25 0"/>
<feBlend mode="normal" in2="BackgroundImageFix" result="effect1_dropShadow_24_104"/>
<feBlend mode="normal" in="SourceGraphic" in2="effect1_dropShadow_24_104" result="shape"/>
</filter>
</defs>
</svg>
